<?xml version="1.0" encoding="iso-8859-1"?>
<!-- Uploaded to: SVG Repo, www.svgrepo.com, Generator: SVG Repo Mixer Tools -->
<svg fill="#000000" height="800px" width="800px" version="1.1" id="Layer_1" xmlns="http://www.w3.org/2000/svg" xmlns:xlink="http://www.w3.org/1999/xlink" 
	 viewBox="0 0 512 512" xml:space="preserve">
<g>
	<g>
		<path d="M399.673,68.043V0H112.327v68.043c-14.623,1.325-26.122,13.647-26.122,28.61V512h26.122h7.837h271.673h7.837h26.122
			V96.653C425.796,81.69,414.297,69.368,399.673,68.043z M112.327,496.327h-10.449V96.653c0-6.308,4.494-11.584,10.449-12.798
			V496.327z M334.759,496.327H177.241V378.386h157.518V496.327z M384,496.327h-33.567V362.712H161.567v133.614H128V340.114h256
			V496.327z M384,324.441H128V109.714h256V324.441z M384,94.041H128V15.673h256V94.041z M410.122,496.327h-10.449V83.855
			c5.955,1.214,10.449,6.49,10.449,12.798V496.327z"/>
	</g>
</g>
<g>
	<g>
		<path d="M146.286,122.775v136.882h219.429V122.775H146.286z M175.02,223.532l-13.061,11.222v-87.077l13.061,11.223V223.532z
			 M175.267,243.984l10.494-9.016h77.783l10.494,9.016H175.267z M190.694,219.293v-56.154h67.918v56.154H190.694z M263.545,147.465
			h-77.783l-10.494-9.016h98.771L263.545,147.465z M287.347,234.754l-13.061-11.222v-64.631l13.061-11.223V234.754z
			 M350.041,243.984h-47.02v-24.73h47.02V243.984z M350.041,203.582h-47.02v-24.73h47.02V203.582z M350.041,163.179h-47.02v-24.73
			h47.02V163.179z"/>
	</g>
</g>
<g>
	<g>
		<path d="M292.571,271.673h-73.143c-11.523,0-20.898,9.375-20.898,20.898c0,11.523,9.375,20.898,20.898,20.898h73.143
			c11.523,0,20.898-9.375,20.898-20.898C313.469,281.048,304.095,271.673,292.571,271.673z M292.571,297.796h-73.143
			c-2.881,0-5.224-2.344-5.224-5.224c0-2.881,2.344-5.224,5.224-5.224h73.143c2.881,0,5.224,2.344,5.224,5.224
			C297.796,295.452,295.452,297.796,292.571,297.796z"/>
	</g>
</g>
<g>
	<g>
		<path d="M162.482,32.914V76.8h187.037V32.914H162.482z M333.845,61.127h-155.69V48.588h155.69V61.127z"/>
	</g>
</g>
</svg>